<?xml version="1.0" standalone="no"?>
<!DOCTYPE svg PUBLIC "-//W3C//DTD SVG 20010904//EN"
 "http://www.w3.org/TR/2001/REC-SVG-20010904/DTD/svg10.dtd">
<svg version="1.0" xmlns="http://www.w3.org/2000/svg"
 width="1280.000000pt" height="905.000000pt" viewBox="0 0 1280.000000 905.000000"
 preserveAspectRatio="xMidYMid meet">
<metadata>
Created by potrace 1.15, written by Peter Selinger 2001-2017
</metadata>
<g transform="translate(0.000000,905.000000) scale(0.100000,-0.100000)"
fill="#000000" stroke="none">
<path d="M7159 8194 c-90 -69 -165 -132 -167 -139 -3 -14 56 -326 64 -334 2
-2 52 35 111 83 59 47 111 86 116 86 4 0 7 -311 7 -692 l0 -691 -178 -351
c-98 -193 -268 -537 -378 -765 -109 -228 -200 -407 -202 -398 -2 9 6 100 17
204 12 103 34 350 51 548 16 198 32 378 35 400 8 68 9 401 1 413 -9 16 -41 15
-54 0 -16 -20 -69 -331 -98 -568 -72 -606 -78 -666 -105 -949 -19 -196 -26
-244 -39 -248 -115 -36 -190 -124 -206 -240 -8 -63 17 -153 56 -203 l28 -35
-206 -460 c-113 -253 -205 -469 -204 -479 1 -12 -32 -54 -82 -106 -87 -90
-164 -194 -223 -297 -19 -35 -36 -63 -37 -63 -2 0 19 80 45 178 48 174 49 180
49 325 l0 147 -345 0 c-190 0 -345 4 -345 9 0 4 4 32 10 61 22 114 -29 266
-117 352 -85 83 -167 122 -315 153 -26 5 -25 8 65 98 187 188 299 414 342 692
21 133 16 392 -9 494 -55 219 -178 399 -351 517 l-85 58 0 633 0 633 -143 0
-142 0 -172 -91 c-95 -50 -175 -94 -177 -98 -4 -6 59 -239 67 -247 2 -2 57 25
122 61 64 36 119 65 121 65 2 0 4 -190 4 -422 l0 -423 -232 -1 c-229 0 -235
-1 -353 -32 -346 -92 -599 -318 -671 -602 -22 -85 -22 -235 0 -320 50 -197
174 -338 381 -435 287 -136 690 -121 923 35 28 19 32 20 32 5 0 -30 -66 -159
-115 -223 -158 -209 -414 -309 -838 -328 l-147 -7 0 -200 0 -200 228 6 c199 4
319 16 449 43 l32 6 -21 -53 c-16 -41 -22 -77 -22 -149 -1 -87 2 -101 31 -163
42 -89 83 -140 154 -192 l57 -42 -76 -54 c-89 -62 -159 -149 -192 -236 -34
-88 -39 -221 -12 -309 72 -236 284 -364 602 -364 219 0 376 55 496 175 106
106 150 226 142 389 -6 108 -30 177 -88 253 l-40 53 215 0 c118 0 215 -3 215
-6 0 -3 -104 -368 -230 -811 -127 -443 -234 -818 -237 -834 l-5 -29 156 0 c86
0 156 2 156 5 0 5 171 639 173 642 1 1 3 -94 3 -210 1 -169 6 -236 23 -331 53
-295 166 -522 345 -694 179 -172 395 -254 671 -254 214 0 374 45 535 153 204
136 346 348 417 620 l27 101 40 -7 c94 -15 258 -22 352 -14 398 34 700 289
780 660 17 82 21 276 6 352 l-9 47 148 0 149 0 0 -240 0 -240 140 0 140 0 0
240 0 240 70 0 70 0 0 185 0 185 -70 0 -70 0 0 429 0 428 46 7 c26 3 65 6 88
6 62 0 212 34 291 65 224 89 394 254 480 468 51 124 68 236 63 397 -4 119 -9
147 -37 230 -63 186 -183 330 -341 409 -45 22 -89 41 -96 41 -28 0 -12 16 49
49 38 21 96 68 148 121 70 69 95 104 128 171 90 186 103 402 36 599 -36 107
-80 177 -164 261 -60 59 -96 86 -168 122 -131 65 -215 82 -398 82 -163 0 -251
-14 -407 -65 l-87 -27 55 77 c208 298 206 632 -5 840 -76 75 -173 128 -297
162 -67 18 -106 22 -264 22 -207 1 -282 -10 -452 -68 l-98 -33 0 303 0 304
-134 0 -134 0 -163 -126z m1026 -763 c55 -24 109 -71 132 -114 22 -43 31 -120
21 -183 -26 -169 -152 -326 -565 -707 l-183 -168 0 239 0 240 72 153 c40 85
108 244 153 354 92 230 76 215 230 211 68 -2 102 -8 140 -25z m-555 -91 c4 0
34 14 65 30 32 17 60 28 62 26 3 -2 -27 -58 -65 -123 -38 -65 -77 -131 -85
-148 -15 -28 -16 -22 -16 130 0 154 1 159 16 123 8 -21 19 -38 23 -38z m899
-946 c19 -80 31 -147 29 -150 -3 -2 -98 -3 -211 -2 l-205 3 142 118 c79 65
156 131 171 147 16 17 32 30 35 30 4 0 21 -65 39 -146z m599 -139 c76 -23 132
-70 167 -140 26 -53 30 -71 30 -145 0 -125 -38 -202 -134 -271 -80 -58 -166
-81 -306 -83 l-115 -1 0 -237 0 -238 108 0 c249 -1 398 -73 477 -233 27 -55
37 -90 41 -147 18 -220 -93 -382 -295 -430 -125 -29 -337 11 -498 94 -46 24
-83 42 -83 41 0 -1 -27 -116 -61 -255 l-60 -254 23 -18 c13 -9 51 -30 86 -45
34 -15 62 -30 62 -33 0 -3 -75 -218 -168 -477 l-168 -471 -39 30 c-60 45 -190
105 -280 129 -56 14 -115 21 -197 22 -106 2 -118 4 -118 20 0 22 28 280 36
325 l5 32 374 0 375 0 0 230 0 230 -565 0 c-489 0 -565 -2 -565 -15 0 -18
-117 -1138 -124 -1186 l-6 -35 198 0 c228 1 306 -13 419 -74 134 -72 189 -176
181 -344 -3 -80 -8 -99 -38 -154 -72 -135 -238 -214 -415 -197 -78 7 -193 29
-202 39 -4 3 -16 46 -29 95 -41 165 -125 313 -236 418 -132 124 -281 187 -468
199 -211 14 -398 -48 -546 -179 -58 -53 -62 -49 -38 34 54 184 156 342 294
457 80 66 237 144 347 171 79 20 304 51 370 51 l33 0 0 265 0 265 -96 0 c-104
0 -305 -22 -418 -46 -150 -31 -379 -122 -469 -186 -16 -11 -30 -18 -32 -16 -5
5 297 578 305 578 3 0 0 -71 -5 -157 -10 -145 -9 -159 7 -175 43 -43 83 -13
92 69 4 32 18 138 32 235 13 97 24 181 24 186 0 6 17 13 37 17 116 21 208 126
220 248 7 75 -11 139 -53 194 l-27 35 266 537 c147 295 314 637 371 761 l106
225 107 3 108 3 -52 -53 -53 -54 0 -137 0 -137 715 0 715 0 0 185 0 185 -32 1
c-30 1 -28 3 17 14 70 18 182 18 243 0z m-5174 -534 c91 -40 163 -144 191
-276 17 -82 19 -223 4 -294 -29 -135 -259 -222 -424 -161 -79 30 -153 104
-186 186 -20 50 -23 77 -24 174 0 128 10 170 57 249 62 103 161 156 276 147
34 -3 82 -14 106 -25z m430 -1865 c88 -37 131 -179 90 -301 -20 -56 -100 -145
-131 -145 -12 0 -47 17 -78 38 -125 85 -166 221 -102 338 39 70 142 103 221
70z m4358 -543 l-4 -393 -124 0 c-68 0 -124 3 -124 6 0 3 47 148 105 323 58
174 115 349 126 389 11 41 21 72 22 70 1 -1 1 -180 -1 -395z m-4034 -47 l-3
-25 -38 23 -37 23 37 25 38 25 3 -23 c2 -13 2 -35 0 -48z m-271 -260 c68 -78
94 -172 73 -269 -22 -107 -95 -171 -195 -171 -99 0 -170 65 -200 183 -34 132
26 284 135 341 l35 18 58 -31 c32 -17 74 -49 94 -71z m1963 -842 c149 -81 227
-305 201 -572 -20 -199 -67 -319 -154 -397 -140 -127 -344 -52 -438 159 -88
199 -103 503 -32 644 38 76 118 155 185 181 75 30 166 24 238 -15z"/>
<path d="M5155 7784 c-44 -20 -99 -44 -122 -54 l-42 -19 21 -63 c11 -35 24
-67 29 -72 5 -5 39 5 81 24 40 18 79 35 86 37 10 4 12 -32 10 -173 l-3 -177
-75 -3 c-137 -5 -240 -62 -321 -177 -109 -156 -156 -370 -146 -667 10 -295 69
-473 196 -601 87 -87 149 -112 276 -112 121 0 184 25 269 104 142 132 209 350
209 679 0 279 -46 467 -149 613 l-34 47 0 325 0 325 -102 -1 c-95 0 -109 -3
-183 -35z m48 -802 c9 -8 17 -21 17 -27 0 -7 6 -15 13 -18 41 -16 73 -283 63
-522 -10 -257 -41 -369 -112 -403 -34 -16 -37 -15 -72 3 -80 44 -112 182 -112
485 0 268 24 405 83 468 40 44 81 48 120 14z"/>
<path d="M5805 7769 c-60 -26 -114 -50 -120 -52 -12 -4 32 -147 45 -147 5 0
43 16 86 35 42 19 78 35 80 35 2 0 4 -157 4 -350 l0 -350 110 0 109 0 3 108 3
107 53 28 52 28 0 -305 0 -306 85 0 85 0 0 385 0 385 -73 0 c-63 0 -82 -4
-128 -30 -30 -16 -60 -30 -66 -30 -10 0 -13 58 -13 255 l0 255 -102 -1 c-101
-1 -106 -2 -213 -50z"/>
<path d="M6655 7366 c-22 -7 -54 -20 -72 -29 l-32 -17 21 -62 c12 -35 22 -64
23 -66 2 -2 21 6 43 18 57 30 103 35 140 16 43 -22 55 -49 50 -112 -6 -71 -47
-135 -180 -284 l-108 -121 0 -55 0 -54 240 0 240 0 0 75 0 75 -127 0 -126 0
64 68 c124 128 169 217 169 330 0 81 -22 134 -73 179 -20 18 -53 37 -74 42
-51 14 -148 13 -198 -3z"/>
</g>
</svg>
